PathFileType	4	(X/Y/Z)	C:\Users\Basilio\Documents\Thesis Gigler\squatting_fais\c3dfiles\019\SJ_pre1\markers_experimental.trc
DataRate	CameraRate	NumFrames	NumMarkers	Units	OrigDataRate	OrigDataStartFrame	OrigNumFrames
200.000000	200.000000	4	59	mm	200.000000	146	1173
Frame#	Time	FHD			LBHD			RBHD			C7			T10			CLAV			LSHO			LUUPA			LMUPA			LDUPA			LLEP			LMEP			LRAD			LUL			LRFIN			RSHO			RUPA1			RMUPA			RDUPA			RLEP			RMEP			RRAD			RUL			RUFIN			LASI			RASI			USACR			LSACR			RSACR			LTHI1			LTHI2			LTHI3			LTHI4			LLFC			LTIB1			LTIB2			LTIB3			LTIB4			LLMAL			LMMAL			LHEE			LMT1			LMT2			LMT5			RTHI			RTHI2			RTHI3			RTHI4			RLFC			RTIB1			RTIB2			RTIB3			RTIB4			RLMAL			RMMAL			RHEE			RMT1			RMT2			RMT5			
		X1	Y1	Z1	X2	Y2	Z2	X3	Y3	Z3	X4	Y4	Z4	X5	Y5	Z5	X6	Y6	Z6	X7	Y7	Z7	X8	Y8	Z8	X9	Y9	Z9	X10	Y10	Z10	X11	Y11	Z11	X12	Y12	Z12	X13	Y13	Z13	X14	Y14	Z14	X15	Y15	Z15	X16	Y16	Z16	X17	Y17	Z17	X18	Y18	Z18	X19	Y19	Z19	X20	Y20	Z20	X21	Y21	Z21	X22	Y22	Z22	X23	Y23	Z23	X24	Y24	Z24	X25	Y25	Z25	X26	Y26	Z26	X27	Y27	Z27	X28	Y28	Z28	X29	Y29	Z29	X30	Y30	Z30	X31	Y31	Z31	X32	Y32	Z32	X33	Y33	Z33	X34	Y34	Z34	X35	Y35	Z35	X36	Y36	Z36	X37	Y37	Z37	X38	Y38	Z38	X39	Y39	Z39	X40	Y40	Z40	X41	Y41	Z41	X42	Y42	Z42	X43	Y43	Z43	X44	Y44	Z44	X45	Y45	Z45	X46	Y46	Z46	X47	Y47	Z47	X48	Y48	Z48	X49	Y49	Z49	X50	Y50	Z50	X51	Y51	Z51	X52	Y52	Z52	X53	Y53	Z53	X54	Y54	Z54	X55	Y55	Z55	X56	Y56	Z56	X57	Y57	Z57	X58	Y58	Z58	X59	Y59	Z59	

147	0.73	55.44654846191408	1161.380981445313	-841.8235473632815	-76.67905426025392	1172.172241210938	-985.992370605469	-82.46521759033205	1165.032836914063	-846.3978271484377	-161.1483001708985	1046.630615234375	-914.685241699219	-386.8083496093751	870.2956542968752	-920.5306396484377	-83.3579788208008	921.1671142578127	-918.3873291015627	-104.8941268920899	991.7368164062502	-1071.647216796875	-216.0885925292969	913.3370361328127	-1179.439208984375	-243.6551361083985	876.9907836914065	-1160.379150390625	-267.9531860351563	888.620056152344	-1213.789428710938	-334.6261291503907	888.0828247070315	-1267.991943359375	-388.2413330078126	931.9961547851565	-1242.962890625	-469.5004272460939	720.6788330078126	-1128.5634765625	-462.2196655273439	689.0921630859376	-1188.838012695313	-431.5562133789064	690.2422485351564	-1100.070922851563	-99.54132080078128	983.5408325195315	-771.1539306640627	-229.9034576416016	955.6384887695315	-632.2750244140626	-236.1501770019532	902.1506347656252	-633.8763427734376	-277.6593627929688	920.861267089844	-592.8248901367189	-337.4146728515626	870.585144042969	-563.0037231445314	-380.8064575195313	918.4019165039065	-581.7801513671876	-473.3304138183595	719.6562500000001	-722.2918090820314	-457.3447875976564	674.2283325195314	-673.5017089843751	-434.2310791015626	687.3005371093751	-765.4686279296876	-416.8607177734376	653.5369262695314	-1034.5224609375	-411.3046264648439	653.5863037109376	-830.2932739257815	-500.237030029297	783.632263183594	-926.035339355469	-528.7465209960939	764.4146728515626	-953.1546020507815	-525.3450927734376	760.7209472656251	-896.7420043945315	-407.8982849121095	533.7816772460939	-1160.650024414063	-325.0962219238282	531.6027221679689	-1181.727416992188	-300.5932617187501	569.3594360351564	-1166.80859375	-289.2753906250001	481.3198242187501	-1189.263793945313	-217.9027557373047	433.0414428710939	-1187.516845703125	-185.5823364257813	296.5664062500001	-1165.762084960938	-262.1929931640626	276.1443786621094	-1206.056762695313	-226.1880340576172	261.4282226562501	-1187.17236328125	-255.0795440673829	189.8273162841797	-1148.167358398438	-371.4876098632813	96.35501098632815	-1159.243530273438	-337.6510925292969	96.94969177246097	-1078.70068359375	-430.3848266601564	47.65386581420899	-1100.419189453125	-213.7718963623047	57.9054527282715	-1127.827880859375	-220.5666656494141	59.44818115234376	-1167.573364257813	-270.3159484863282	35.72698593139649	-1211.795043945313	-450.1580810546876	587.0469360351564	-713.8496704101564	-385.789031982422	594.6220092773439	-709.3778076171876	-374.5723876953126	616.1452636718751	-734.6139526367189	-331.5635070800782	541.4818115234376	-679.5150756835939	-215.9542083740235	436.6861877441407	-669.2119140625001	-201.1672058105469	263.8731384277344	-708.6038208007814	-291.1264648437501	212.7826080322266	-666.1051635742189	-253.1185150146485	193.8159484863282	-691.5077514648439	-268.5610351562501	158.6100311279297	-734.1312255859376	-363.0445251464844	98.3923263549805	-699.0717773437501	-326.0316467285157	93.50489044189455	-771.7376098632815	-411.681854248047	44.74798202514649	-760.1488647460939	-207.0933227539063	52.89536285400392	-712.0168457031251	-219.215805053711	61.11385345458986	-667.9178466796876	-272.7834777832032	41.95895385742188	-628.9593505859376	
148	0.735	56.55738449096681	1158.158813476563	-841.7065429687502	-75.71131896972658	1169.155639648438	-985.6068115234377	-81.36958312988283	1161.743896484375	-846.3106689453127	-159.8559722900391	1043.771484375	-914.635925292969	-386.2912902832032	868.0777587890627	-920.486999511719	-82.4892044067383	918.0335693359377	-918.2877197265627	-104.2499008178711	988.826354980469	-1071.558227539063	-215.2716217041016	910.774597167969	-1179.27587890625	-243.2439117431641	874.5957031250002	-1160.303955078125	-267.6106262207032	886.3676757812502	-1213.568237304688	-334.2514648437501	886.2224731445315	-1267.77685546875	-387.6934204101564	930.3192138671877	-1242.766845703125	-469.6457824707032	719.2871093750001	-1128.10888671875	-462.4866638183595	687.7058715820314	-1188.521362304688	-432.4239501953126	688.8383789062501	-1099.787231445313	-98.49772644042972	980.4586181640627	-771.2746582031252	-229.1587982177735	953.0505371093752	-632.0245971679689	-235.5603332519532	899.5170898437502	-633.6385498046876	-276.9252319335938	918.625183105469	-592.6501464843751	-337.0029602050782	868.560729980469	-562.9685058593751	-380.3429260253907	916.5405883789065	-581.6873779296876	-473.5467224121095	718.2738037109376	-722.3408203125001	-457.452850341797	672.6184082031251	-673.4511108398439	-434.3144531250001	685.7459716796876	-765.4384155273439	-416.9498291015626	651.8483276367189	-1034.357543945313	-407.1343078613282	651.9951782226564	-828.6076660156252	-500.240692138672	781.7542114257815	-925.906188964844	-528.7756958007814	762.6193847656251	-953.0948486328127	-525.4570922851564	758.9295654296876	-896.6776123046877	-407.7808227539064	532.7800292968751	-1160.55615234375	-325.0734863281251	530.8303833007814	-1181.73095703125	-300.6434631347657	568.5927734375001	-1166.697998046875	-289.0962829589844	480.7844848632814	-1189.387939453125	-217.5921020507813	432.7989196777345	-1187.959594726563	-185.3179321289063	296.1716308593751	-1166.131591796875	-261.9828796386719	275.9579772949219	-1206.184692382813	-226.0461883544922	261.1116943359376	-1187.340087890625	-254.9990386962891	189.5332489013672	-1148.290405273438	-371.4632263183594	96.3576354980469	-1159.21630859375	-337.6073608398438	97.00797271728518	-1078.676879882813	-430.3188781738282	47.66660308837891	-1100.362548828125	-213.8800964355469	57.78325271606447	-1127.852661132813	-220.7090301513672	59.46508026123048	-1167.558959960938	-270.3248596191407	35.68910217285157	-1211.783935546875	-450.3967285156251	585.8932495117189	-713.7460327148439	-385.7852783203126	593.4704589843751	-709.1666870117189	-374.7825927734376	614.9572753906251	-734.4080810546876	-331.4144287109376	540.5238037109376	-679.1945190429689	-215.5686035156251	436.3000793457032	-668.7045288085939	-200.8502349853516	263.7624816894532	-708.4011840820314	-290.9196472167969	212.6369628906251	-665.8936767578126	-252.8146057128907	193.4922485351563	-691.4573974609376	-268.4356994628907	158.5412139892578	-734.0344848632814	-363.0256652832032	98.37953186035159	-699.0621337890626	-325.9912414550782	93.51358032226564	-771.6978759765627	-411.9291992187501	44.9453468322754	-760.0609741210939	-207.499252319336	53.25350570678712	-712.0231323242189	-219.2728118896485	61.08987426757814	-667.9280395507814	-272.7409057617188	41.92320632934571	-629.0017089843751	
149	0.74	57.69940567016603	1154.8603515625	-841.679870605469	-74.18873596191408	1165.900268554688	-985.7606201171877	-80.28350830078126	1158.661987304688	-846.2690429687502	-159.0816040039063	1040.991577148438	-914.5981445312502	-385.8709411621095	865.9448852539065	-920.405700683594	-81.90303039550783	915.0164794921877	-918.2191162109377	-103.2454223632813	985.9194946289065	-1071.41455078125	-214.8084411621094	908.312683105469	-1179.171630859375	-242.6493072509766	872.265808105469	-1160.167358398438	-267.2515258789063	884.2712402343752	-1213.475341796875	-333.9092407226563	884.2834472656252	-1267.625	-387.1092834472657	928.6314086914065	-1242.470947265625	-469.7117309570314	717.9407348632814	-1127.7763671875	-462.7554321289064	686.2868041992189	-1188.25341796875	-432.2991638183595	687.2591552734376	-1099.530639648438	-97.64937591552737	977.5626220703127	-771.0460205078127	-228.3247833251954	950.9305419921877	-631.9497070312501	-234.8372039794922	897.213073730469	-633.4666748046876	-276.1372680664063	916.4935302734377	-592.5215454101564	-336.5148315429688	866.513610839844	-562.6608276367189	-379.5490112304688	914.8265380859377	-581.4319458007814	-473.5445251464845	716.7658691406251	-722.0617065429689	-457.6724853515626	671.1374511718751	-673.2618408203126	-434.735565185547	684.2255249023439	-765.4586181640626	-416.6640014648439	649.9301757812501	-1034.358032226563	-407.4723510742189	646.4352416992189	-828.0427246093752	-500.2342834472657	779.9099121093752	-925.893249511719	-528.5112304687501	760.5551147460939	-953.0189208984377	-525.3952026367189	756.9967041015626	-896.5332641601565	-407.8232727050782	531.6391601562501	-1160.495727539063	-325.0391235351563	530.1082153320314	-1181.759033203125	-300.6661987304688	567.8352661132814	-1166.660400390625	-288.9647521972657	480.282928466797	-1189.538208007813	-217.188949584961	432.5308532714845	-1188.179565429688	-185.0638275146485	295.9778747558594	-1166.191162109375	-261.7033386230469	275.7724304199219	-1206.303100585938	-225.881332397461	261.0206604003907	-1187.469604492188	-254.8163452148438	189.6265563964844	-1148.020629882813	-371.4493713378907	96.34333801269534	-1159.213134765625	-337.5528564453126	96.99170684814456	-1078.690795898438	-430.3221130371095	47.68541717529298	-1100.368530273438	-213.8737487792969	57.95005798339845	-1127.899169921875	-220.6961517333985	59.47203063964845	-1167.59130859375	-270.3372802734376	35.6598243713379	-1211.797729492188	-450.3368530273439	584.4174804687501	-713.5117797851564	-385.9803161621095	592.5955810546876	-709.2302856445314	-374.9288330078126	613.7526855468751	-734.3116455078126	-331.3215332031251	539.7363281250001	-678.9569702148439	-215.0665588378907	436.0690917968751	-668.4111328125001	-200.5410766601563	263.4555053710938	-708.1945800781251	-290.6842956542969	212.5166473388672	-665.7872924804689	-252.6178436279297	193.3684844970704	-691.2576904296876	-268.2518920898438	158.4736633300782	-733.9515991210939	-363.0036621093751	98.40084075927737	-699.0168457031251	-325.9360046386719	93.55221557617189	-771.6872558593752	-411.6859436035157	44.79400253295899	-760.2052001953126	-207.4840545654297	53.17501449584962	-712.0480346679689	-219.2818145751954	61.11012649536134	-667.9032592773439	-272.7440795898438	41.87582397460938	-628.9743652343751	
150	0.745	58.66599655151369	1151.7294921875	-841.5800781250002	-73.24869537353517	1162.806884765625	-985.7674560546877	-79.00709533691408	1155.695190429688	-846.1097412109377	-158.2761535644532	1038.174438476563	-914.4837646484377	-385.3774414062501	863.8712158203127	-920.2561035156252	-81.26546478271486	912.026062011719	-918.1395263671877	-102.3864364624024	982.8975219726565	-1071.277221679688	-214.1758575439454	905.8671875000002	-1179.023803710938	-242.2649993896485	869.946716308594	-1160.117553710938	-266.8479919433594	882.039001464844	-1213.27685546875	-333.5300598144532	882.486755371094	-1267.3232421875	-386.3613281250001	926.716979980469	-1242.197021484375	-470.3167724609376	716.5877075195314	-1127.504516601563	-463.0653381347657	684.8838500976564	-1187.946533203125	-432.2658081054689	685.7047729492189	-1099.118041992188	-96.83974456787112	974.6675415039065	-771.007995605469	-227.6289672851563	948.5120849609377	-631.9118041992189	-234.2609863281251	894.794372558594	-633.3140869140626	-275.5303039550782	914.353210449219	-592.4284057617189	-336.0584411621094	864.4857177734377	-562.4810791015626	-378.9691772460938	913.0371704101565	-581.3583984375001	-473.7884826660157	715.3566894531251	-722.1105957031251	-457.8632202148439	669.8157958984376	-673.4614868164064	-434.2937011718751	683.0778198242189	-765.1260375976564	-416.5724182128907	647.9555664062501	-1034.250610351563	-407.9246826171876	644.1287231445314	-827.8184204101565	-499.9491577148439	777.9410400390627	-925.811218261719	-528.5859985351564	758.8636474609376	-952.9318847656252	-525.3336181640626	755.2922973632814	-896.4453735351565	-407.8104248046876	530.4239501953126	-1160.41162109375	-325.0258789062501	529.3831787109376	-1181.769775390625	-300.7779541015626	567.1292114257814	-1166.685424804688	-288.7671508789063	479.7100219726564	-1189.607177734375	-216.8143768310547	432.1629943847657	-1188.594970703125	-184.8264312744141	295.5664062500001	-1166.729125976563	-261.5362243652344	275.6571044921876	-1206.433471679688	-225.5844726562501	260.7641601562501	-1187.59912109375	-254.8565216064454	189.341293334961	-1148.519897460938	-371.3370666503907	96.33614349365237	-1159.227294921875	-337.4396362304688	96.96638488769534	-1078.648315429688	-430.3411560058595	47.6786003112793	-1100.348999023438	-213.8948516845704	57.91234588623048	-1127.910888671875	-220.7165832519532	59.4389114379883	-1167.578857421875	-270.4022216796876	35.68060302734376	-1211.80419921875	-450.6552124023439	583.3587646484376	-713.2982788085939	-386.4211730957032	591.4880371093751	-708.7273559570314	-375.2207641601563	612.8745117187501	-734.1814575195314	-331.4329833984376	539.0391235351564	-678.5737915039064	-214.6490478515626	435.6988525390626	-667.9915771484376	-200.2862091064454	263.2723083496094	-707.9509277343751	-290.5567626953126	212.350570678711	-665.6256103515626	-252.4854278564454	193.2278137207032	-691.1314697265626	-268.1185302734376	158.3901519775391	-733.8391723632814	-362.9395446777344	98.35346984863284	-699.0297241210939	-325.8709716796876	93.55104064941408	-771.7281494140627	-411.7011108398439	44.84406661987305	-760.1838378906251	-207.5065612792969	53.23626708984376	-712.0615844726564	-219.2877655029297	61.07778549194337	-667.8967895507814	-272.7278747558594	41.85117721557618	-628.9313354492189	
